<svg xmlns="http://www.w3.org/2000/svg" viewBox="0 0 307.8 93.8"><defs><style>.cls-1{fill:#1d1d1b;}.cls-2{fill:#f28b02;}</style></defs><g id="katman_2" data-name="katman 2"><g id="katman_1-2" data-name="katman 1"><path class="cls-1" d="M45,19.9c0,7.1-2.9,12-8.7,14.9,5.6,2.1,9.4,5.5,11.2,10.4a20.6,20.6,0,0,1,1,6.5,19.5,19.5,0,0,1-1.3,7.2,15.6,15.6,0,0,1-3.9,6.2c-3.9,3.5-9.8,5.2-17.8,5.2H4A3.5,3.5,0,0,1,1.2,69,4.5,4.5,0,0,1,0,65.9V6.7A4.7,4.7,0,0,1,1.2,3.5,3.7,3.7,0,0,1,4,2.1H25.1c6.5,0,11.5,1.7,14.8,5A17.1,17.1,0,0,1,45,19.9Zm-7.7.6A9.2,9.2,0,0,0,34,13.2c-2.3-1.8-5.4-2.7-9.5-2.7H8.2V31.6H22.9c7.7,0,12.3-2.2,13.7-6.7A12.3,12.3,0,0,0,37.3,20.5ZM24.8,62c8.4,0,13.4-2.2,15.1-6.7a13.3,13.3,0,0,0,.7-4.5c0-3.9-1.3-6.8-4-8.5S30,39.6,24.9,39.6H8.2V62Z"/><path class="cls-1" d="M69.3,5.4A4.8,4.8,0,0,1,68,8.9a3.9,3.9,0,0,1-3.2,1.5h-.6A4.1,4.1,0,0,1,61,8.9a5.1,5.1,0,0,1-1.2-3.5V5a5.2,5.2,0,0,1,1.3-3.6A4.1,4.1,0,0,1,64.2,0h.6A4.2,4.2,0,0,1,68,1.4,5.2,5.2,0,0,1,69.3,5ZM61.6,21.3a3.8,3.8,0,0,1,3-1.3,3.4,3.4,0,0,1,2.8,1.3,4.9,4.9,0,0,1,1.1,3.3V66.4a4.9,4.9,0,0,1-1.1,3.1,3.4,3.4,0,0,1-2.8,1.3,3.8,3.8,0,0,1-3-1.3,4.5,4.5,0,0,1-1.2-3.1V24.6A4.5,4.5,0,0,1,61.6,21.3Z"/><path class="cls-1" d="M116.9,26.9V24.6a4.7,4.7,0,0,1,1.2-3.2,3.5,3.5,0,0,1,2.7-1.4,4.1,4.1,0,0,1,2.9,1.3,4.4,4.4,0,0,1,1.3,3.3V68.2c0,8.2-1.8,14.6-5.5,19s-8.7,6.6-15.4,6.6A36.2,36.2,0,0,1,85,88.7a3.4,3.4,0,0,1-1.5-3,4.9,4.9,0,0,1,1-3.2,2.9,2.9,0,0,1,2.1-1.2,6.4,6.4,0,0,1,2,.3,29.6,29.6,0,0,0,14.6,3.7c9.2,0,13.7-5.2,13.7-15.8V62.9c-4.2,5-9.2,7.4-15.2,7.4A19.4,19.4,0,0,1,87.2,64c-4.8-4.8-7.1-11.1-7.1-19.1s2.3-14.4,7.1-19.2a19.1,19.1,0,0,1,14.7-6.2C107.7,19.5,112.7,22,116.9,26.9Zm0,7.9a25,25,0,0,0-5.7-5,12.6,12.6,0,0,0-7.1-2.1,19.3,19.3,0,0,0-6.7,1,13.9,13.9,0,0,0-4.8,3.2c-2.9,3.1-4.4,7.4-4.4,13,0,8.5,3.1,13.9,9.2,16.2a17.1,17.1,0,0,0,6.7,1.1c4.4,0,8.6-2.4,12.8-7.3Z"/><path class="cls-1" d="M155.5,63.4a9.4,9.4,0,0,0,3.4-.4,5.9,5.9,0,0,1,2.3-.4,2.6,2.6,0,0,1,2.1,1,4,4,0,0,1,1,3,3,3,0,0,1-1.7,2.8,16.4,16.4,0,0,1-6.5,1.9,37.3,37.3,0,0,1-5-.3,11.9,11.9,0,0,1-4.3-1.6c-3.2-2.1-4.9-5.8-4.9-11V28.1h-6.3c-1.1,0-1.6-.6-1.7-1.9a1.9,1.9,0,0,1,.9-1.5l12-13a2,2,0,0,1,1.5-.9,1.1,1.1,0,0,1,1.2.5,2.5,2.5,0,0,1,.5,1.5v7.7h10.1a3.4,3.4,0,0,1,2.5,1.1,4.1,4.1,0,0,1,1,2.7,4.5,4.5,0,0,1-1,2.8,3.3,3.3,0,0,1-2.5,1H150V57.7c0,2.4.7,4.1,2,5A6.6,6.6,0,0,0,155.5,63.4Z"/><path class="cls-1" d="M174.7,23a35.5,35.5,0,0,1,15.6-3.5c6,0,10.7,2.1,14,6.1a20.1,20.1,0,0,1,4.6,13.1V66.4a4.2,4.2,0,0,1-1.3,3.1,3.8,3.8,0,0,1-3,1.3,3.5,3.5,0,0,1-2.8-1.3,4.5,4.5,0,0,1-1.2-3.1V63.9a24.1,24.1,0,0,1-6.4,5A19.7,19.7,0,0,1,184,71.3a14,14,0,0,1-10.3-4,13.7,13.7,0,0,1-4.3-10.6,14.2,14.2,0,0,1,5-11.4c3.6-3,8.8-4.5,15.5-4.4h10.7V40c0-4.3-.9-7.4-2.9-9.3s-4.9-2.7-8.9-2.7a38.7,38.7,0,0,0-11.9,2.3l-1.6.2a2.7,2.7,0,0,1-1.9-1,4.7,4.7,0,0,1-1-3.2A3.5,3.5,0,0,1,174.7,23Zm2.9,32.7c0,5.2,3.1,7.8,9.4,7.7a14.4,14.4,0,0,0,7.8-2.2,22.1,22.1,0,0,0,5.8-4.9V48H191c-4.2,0-7.4.6-9.8,1.8A6,6,0,0,0,177.6,55.7Z"/><path class="cls-1" d="M230.5,28.7c4.2-6.1,8.9-9.2,14-9.2h.5a3.7,3.7,0,0,1,2.7,1.3,4.4,4.4,0,0,1,1.2,3.2,4.1,4.1,0,0,1-1.2,3,4,4,0,0,1-3,1.1h-.4a13.4,13.4,0,0,0-7.9,2.4,20.6,20.6,0,0,0-5.9,6.2V66.4a4.5,4.5,0,0,1-1.2,3.1,3.5,3.5,0,0,1-2.8,1.3,3.4,3.4,0,0,1-2.8-1.3,4.5,4.5,0,0,1-1.2-3.1V24.6a4.6,4.6,0,0,1,1.1-3.2,3.7,3.7,0,0,1,2.9-1.4,3.9,3.9,0,0,1,2.8,1.3,4.8,4.8,0,0,1,1.2,3.3Z"/><path class="cls-1" d="M290.4,66.3a4.1,4.1,0,0,1-1.1,2.8,3.4,3.4,0,0,1-2.7,1.2H258.8a5.8,5.8,0,0,1-4-1.3,4.4,4.4,0,0,1-1.6-3.7,6.8,6.8,0,0,1,1.4-4.2l25.7-32.3H257.8a4,4,0,0,1-2.7-1.1,4.4,4.4,0,0,1-1.1-2.9,4.3,4.3,0,0,1,1.1-3,3.2,3.2,0,0,1,2.7-1.3h26.9a4.9,4.9,0,0,1,3.8,1.5,5.6,5.6,0,0,1,1.4,4,6,6,0,0,1-1.3,4L263.8,62h22.8a3.2,3.2,0,0,1,2.6,1.3A4.4,4.4,0,0,1,290.4,66.3Z"/><path class="cls-2" d="M303.5,67.8a2.8,2.8,0,0,1,.1-.9,5.6,5.6,0,0,1,.5-.8,1.8,1.8,0,0,1,.7-.5l.8-.2.8.2a1.8,1.8,0,0,1,.7.5,2.2,2.2,0,0,1,.5.8,2.8,2.8,0,0,1,.1.9,2.2,2.2,0,0,1-.1.9,2.2,2.2,0,0,1-.5.8,1.8,1.8,0,0,1-.7.5l-.8.2-.8-.2a1.8,1.8,0,0,1-.7-.5,5.6,5.6,0,0,1-.5-.8A2.2,2.2,0,0,1,303.5,67.8Z"/><path class="cls-2" d="M306.9,48.7a8.3,8.3,0,0,1,.6,2.1,12.3,12.3,0,0,1,.2,2,9.6,9.6,0,0,1-.5,3.1,6.1,6.1,0,0,1-1.3,2.2,6.9,6.9,0,0,1-2.2,1.4,9.7,9.7,0,0,1-3.1.4,10.2,10.2,0,0,1-3.2-.5,6.7,6.7,0,0,1-3.8-3.8,7.3,7.3,0,0,1-.5-3v-1a3.4,3.4,0,0,1,.1-1c0-.3.1-.6.1-.9l.3-1h2.6c-.2.7-.5,1.4-.6,2a11.1,11.1,0,0,0-.2,1.7,5.3,5.3,0,0,0,.4,1.9,2.7,2.7,0,0,0,1,1.3,4.8,4.8,0,0,0,1.6.8,6.5,6.5,0,0,0,2,.2,7.1,7.1,0,0,0,2.1-.2,3.6,3.6,0,0,0,1.5-.8,4.5,4.5,0,0,0,1-1.3,5.8,5.8,0,0,0,.3-1.9,2.8,2.8,0,0,0-.1-.9,4.4,4.4,0,0,0-.2-1,2.9,2.9,0,0,0-.2-.9,3.6,3.6,0,0,0-.4-.9Z"/><path class="cls-2" d="M300.3,34a11.6,11.6,0,0,1,3.4.5,5.9,5.9,0,0,1,2.3,1.4,5.7,5.7,0,0,1,1.3,2.1,7,7,0,0,1,.5,2.5,5.9,5.9,0,0,1-1.9,4.7,8.1,8.1,0,0,1-5.4,1.6,11.6,11.6,0,0,1-3.4-.5,7.4,7.4,0,0,1-2.3-1.4,5.7,5.7,0,0,1-1.3-2.1,7,7,0,0,1-.5-2.5,5.9,5.9,0,0,1,1.9-4.7A7.9,7.9,0,0,1,300.3,34Zm.2,3.2a7.5,7.5,0,0,0-3.8.7,2.7,2.7,0,0,0-1.2,2.5,3.3,3.3,0,0,0,.3,1.5,2.8,2.8,0,0,0,.9,1l1.5.5a7.1,7.1,0,0,0,2.1.2,7.5,7.5,0,0,0,3.8-.7,2.8,2.8,0,0,0,1.2-2.5,3.3,3.3,0,0,0-.3-1.5,2.8,2.8,0,0,0-.9-1l-1.5-.6Z"/><path class="cls-2" d="M307.5,23.1l-8,.2-3.2.2,2.1.7,4.9,1.8v1.9l-4.9,1.5-2.1.7h3.1l8.1.3V33l-14.2-.8V28.8l4-1.3,2.3-.7-2.1-.7-4.2-1.5V21.2l14.2-.8Z"/></g></g></svg>